<svg xmlns="http://www.w3.org/2000/svg" width="48.091" height="35.536" viewBox="0 0 48.091 35.536">
  <g id="_x31_02" transform="translate(0 0)">
    <g id="Group_78" data-name="Group 78" transform="translate(0 0)">
      <g id="Group_54" data-name="Group 54" transform="translate(0 0.003)">
        <g id="Group_53" data-name="Group 53">
          <path id="Path_69" data-name="Path 69" d="M46.01,36.136l-32.5,9.023a3.721,3.721,0,0,1-4.58-2.582l-.849-3.062L3.638,23.51a3.719,3.719,0,0,1,2.59-4.58l2.487-.695,7.119-1.973L38.728,9.906a3.72,3.72,0,0,1,4.58,2.59l1.046,3.766L48.6,31.556a3.72,3.72,0,0,1-2.59,4.58Z" transform="translate(-3.501 -9.77)" fill="#f7cc6d"/>
        </g>
      </g>
      <g id="Group_56" data-name="Group 56" transform="translate(4.579 6.496)">
        <g id="Group_55" data-name="Group 55">
          <path id="Path_70" data-name="Path 70" d="M46,36.123,13.5,45.147a3.721,3.721,0,0,1-4.58-2.582L8.072,39.5V20.444a4.173,4.173,0,0,1,.635-2.222l7.119-1.973h28.52l4.246,15.294A3.72,3.72,0,0,1,46,36.123Z" transform="translate(-8.072 -16.249)" fill="#f4bc5f"/>
        </g>
      </g>
      <g id="Group_58" data-name="Group 58" transform="translate(4.579 6.496)">
        <g id="Group_57" data-name="Group 57">
          <path id="Path_71" data-name="Path 71" d="M48.154,34.528a4.361,4.361,0,0,1-.566.695,3.613,3.613,0,0,1-1.578.9H46L13.5,45.147a3.511,3.511,0,0,1-1.184.129,3.753,3.753,0,0,1-3.4-2.71L8.072,39.5V20.444a4.173,4.173,0,0,1,.635-2.222l7.119-1.973h28.52l4.246,15.294a3.72,3.72,0,0,1-.437,2.985Z" transform="translate(-8.072 -16.249)" fill="#f4bc5f"/>
        </g>
      </g>
      <g id="Group_60" data-name="Group 60" transform="translate(5.294)">
        <g id="Group_59" data-name="Group 59">
          <path id="Path_72" data-name="Path 72" d="M43.3,12.5l5.294,19.063a3.717,3.717,0,0,1-2.58,4.58L13.5,45.166a3.723,3.723,0,0,1-1.992-7.174l9.465-2.628A15.2,15.2,0,0,0,32.083,21.7a14.62,14.62,0,0,0-.453-4.8,2.232,2.232,0,0,0-.063-.271l0-.011a4.561,4.561,0,0,1,3.183-5.614l3.978-1.1A3.717,3.717,0,0,1,43.3,12.5Z" transform="translate(-8.785 -9.766)" fill="#f4bc5f"/>
        </g>
      </g>
      <g id="Group_62" data-name="Group 62" transform="translate(5.293 6.496)">
        <g id="Group_61" data-name="Group 61">
          <path id="Path_73" data-name="Path 73" d="M48.153,34.528a4.361,4.361,0,0,1-.566.695,3.613,3.613,0,0,1-1.578.9H46L13.5,45.155a3.3,3.3,0,0,1-1.184.12,3.719,3.719,0,0,1-.806-7.3l9.469-2.625a15.187,15.187,0,0,0,11.1-13.664,14.547,14.547,0,0,0-.446-4.795c-.017-.094-.043-.18-.069-.274V16.61c-.034-.12-.06-.24-.086-.36H44.344L48.59,31.543a3.72,3.72,0,0,1-.437,2.985Z" transform="translate(-8.784 -16.249)" fill="#e0a958"/>
        </g>
      </g>
      <g id="Group_67" data-name="Group 67" transform="translate(32.674 12.7)">
        <g id="Group_64" data-name="Group 64" transform="translate(0 0)">
          <g id="Group_63" data-name="Group 63">
            <path id="Path_74" data-name="Path 74" d="M42.051,27.993l-3.725,1.034a.93.93,0,0,1-1.145-.647l-1.034-3.725a.93.93,0,0,1,.647-1.145l3.725-1.034a.93.93,0,0,1,1.145.647L42.7,26.848a.93.93,0,0,1-.647,1.145Z" transform="translate(-36.112 -22.442)" fill="#f7cc6d"/>
          </g>
        </g>
        <g id="Group_66" data-name="Group 66" transform="translate(0.92)">
          <g id="Group_65" data-name="Group 65">
            <path id="Path_75" data-name="Path 75" d="M40.517,22.476h0a1.16,1.16,0,0,0-.807,1.428l.048.174a2.9,2.9,0,0,1-2.018,3.569l-.71.2.149.536a.93.93,0,0,0,1.145.647l3.725-1.034a.93.93,0,0,0,.647-1.145l-1.034-3.725a.93.93,0,0,0-1.145-.647Z" transform="translate(-37.03 -22.442)" fill="#f7cc6d"/>
          </g>
        </g>
      </g>
      <g id="Group_69" data-name="Group 69" transform="translate(5.764 17.707)">
        <g id="Group_68" data-name="Group 68">
          <path id="Path_76" data-name="Path 76" d="M21.064,30.538l-9.809,2.724a1.578,1.578,0,0,1-1.943-1.1h0a1.578,1.578,0,0,1,1.1-1.943L20.22,27.5a1.578,1.578,0,0,1,1.943,1.1h0a1.578,1.578,0,0,1-1.1,1.943Z" transform="translate(-9.254 -27.439)" fill="#f7cc6d"/>
        </g>
      </g>
      <g id="Group_71" data-name="Group 71" transform="translate(9.665 28.478)">
        <g id="Group_70" data-name="Group 70">
          <path id="Path_77" data-name="Path 77" d="M18.84,40.21l-4.4,1.221a1.016,1.016,0,0,1-1.25-.707l-.007-.026a1.016,1.016,0,0,1,.707-1.25l4.4-1.221a1.016,1.016,0,0,1,1.25.707l.007.026a1.016,1.016,0,0,1-.707,1.25Z" transform="translate(-13.148 -38.19)" fill="#f7cc6d"/>
        </g>
      </g>
      <g id="Group_73" data-name="Group 73" transform="translate(17.887 26.195)">
        <g id="Group_72" data-name="Group 72">
          <path id="Path_78" data-name="Path 78" d="M27.046,37.932l-4.4,1.221a1.016,1.016,0,0,1-1.25-.707l-.007-.026a1.016,1.016,0,0,1,.707-1.25l4.4-1.221a1.016,1.016,0,0,1,1.25.707l.007.026A1.016,1.016,0,0,1,27.046,37.932Z" transform="translate(-21.353 -35.911)" fill="#f7cc6d"/>
        </g>
      </g>
      <g id="Group_75" data-name="Group 75" transform="translate(26.109 23.912)">
        <g id="Group_74" data-name="Group 74">
          <path id="Path_79" data-name="Path 79" d="M35.252,35.653l-4.4,1.221a1.016,1.016,0,0,1-1.25-.707l-.007-.026a1.016,1.016,0,0,1,.707-1.25l4.4-1.221a1.016,1.016,0,0,1,1.25.707l.007.026A1.016,1.016,0,0,1,35.252,35.653Z" transform="translate(-29.559 -33.632)" fill="#f7cc6d"/>
        </g>
      </g>
      <g id="Group_77" data-name="Group 77" transform="translate(34.331 21.629)">
        <g id="Group_76" data-name="Group 76">
          <path id="Path_80" data-name="Path 80" d="M43.458,33.374,39.06,34.6a1.016,1.016,0,0,1-1.25-.707l-.007-.026a1.016,1.016,0,0,1,.707-1.25l4.4-1.221a1.016,1.016,0,0,1,1.25.707l.007.026A1.016,1.016,0,0,1,43.458,33.374Z" transform="translate(-37.765 -31.354)" fill="#f7cc6d"/>
        </g>
      </g>
    </g>
    <g id="Group_97" data-name="Group 97" transform="translate(6.919 8.224)">
      <g id="Group_80" data-name="Group 80" transform="translate(0.002 0.001)">
        <g id="Group_79" data-name="Group 79">
          <path id="Path_81" data-name="Path 81" d="M47.86,45.2H14.128a3.719,3.719,0,0,1-3.719-3.719V21.694a3.719,3.719,0,0,1,3.719-3.719H47.86a3.719,3.719,0,0,1,3.719,3.719V41.482A3.719,3.719,0,0,1,47.86,45.2Z" transform="translate(-10.409 -17.975)" fill="#63affa"/>
        </g>
      </g>
      <g id="Group_82" data-name="Group 82" transform="translate(0 0)">
        <g id="Group_81" data-name="Group 81">
          <path id="Path_82" data-name="Path 82" d="M51.576,21.7V41.482A3.717,3.717,0,0,1,47.865,45.2H14.13a3.723,3.723,0,0,1,0-7.445h9.823A15.2,15.2,0,0,0,38.309,27.565a14.62,14.62,0,0,0,.847-4.743,2.233,2.233,0,0,0,.012-.278v-.012a4.561,4.561,0,0,1,4.569-4.558h4.129A3.717,3.717,0,0,1,51.576,21.7Z" transform="translate(-10.407 -17.974)" fill="#529ffb"/>
        </g>
      </g>
      <g id="Group_84" data-name="Group 84" transform="translate(0.002 4.852)">
        <g id="Group_83" data-name="Group 83">
          <path id="Path_83" data-name="Path 83" d="M10.409,22.817h41.17v4.735H10.409Z" transform="translate(-10.409 -22.817)" fill="#626681"/>
        </g>
      </g>
      <g id="Group_86" data-name="Group 86" transform="translate(27.902 4.847)">
        <g id="Group_85" data-name="Group 85">
          <path id="Path_84" data-name="Path 84" d="M51.522,22.812v4.743H38.255a14.62,14.62,0,0,0,.847-4.743Z" transform="translate(-38.255 -22.812)" fill="#4d5471"/>
        </g>
      </g>
      <g id="Group_88" data-name="Group 88" transform="translate(3.154 12.035)">
        <g id="Group_87" data-name="Group 87">
          <path id="Path_85" data-name="Path 85" d="M25.314,33.143H15.133a1.578,1.578,0,0,1-1.578-1.578h0a1.578,1.578,0,0,1,1.578-1.578h10.18a1.578,1.578,0,0,1,1.578,1.578h0A1.578,1.578,0,0,1,25.314,33.143Z" transform="translate(-13.555 -29.986)" fill="#82c8fb"/>
        </g>
      </g>
      <g id="Group_90" data-name="Group 90" transform="translate(4.604 21.88)">
        <g id="Group_89" data-name="Group 89">
          <path id="Path_86" data-name="Path 86" d="M20.582,41.87H16.018A1.016,1.016,0,0,1,15,40.854v-.027a1.016,1.016,0,0,1,1.016-1.016h4.564A1.016,1.016,0,0,1,21.6,40.827v.027A1.016,1.016,0,0,1,20.582,41.87Z" transform="translate(-15.002 -39.812)" fill="#82c8fb"/>
        </g>
      </g>
      <g id="Group_92" data-name="Group 92" transform="translate(13.137 21.88)">
        <g id="Group_91" data-name="Group 91">
          <path id="Path_87" data-name="Path 87" d="M29.1,41.87H24.534a1.016,1.016,0,0,1-1.016-1.016v-.027a1.016,1.016,0,0,1,1.016-1.016H29.1a1.016,1.016,0,0,1,1.016,1.016v.027A1.016,1.016,0,0,1,29.1,41.87Z" transform="translate(-23.518 -39.812)" fill="#82c8fb"/>
        </g>
      </g>
      <g id="Group_94" data-name="Group 94" transform="translate(21.67 21.88)">
        <g id="Group_93" data-name="Group 93">
          <path id="Path_88" data-name="Path 88" d="M37.614,41.87H33.05a1.016,1.016,0,0,1-1.016-1.016v-.027a1.016,1.016,0,0,1,1.016-1.016h4.564a1.016,1.016,0,0,1,1.016,1.016v.027A1.016,1.016,0,0,1,37.614,41.87Z" transform="translate(-32.035 -39.812)" fill="#82c8fb"/>
        </g>
      </g>
      <g id="Group_96" data-name="Group 96" transform="translate(30.203 21.88)">
        <g id="Group_95" data-name="Group 95">
          <path id="Path_89" data-name="Path 89" d="M46.131,41.87H41.567a1.016,1.016,0,0,1-1.016-1.016v-.027a1.016,1.016,0,0,1,1.016-1.016h4.564a1.016,1.016,0,0,1,1.016,1.016v.027A1.016,1.016,0,0,1,46.131,41.87Z" transform="translate(-40.551 -39.812)" fill="#82c8fb"/>
        </g>
      </g>
    </g>
    <g id="Group_99" data-name="Group 99" transform="translate(33.215 21.005)">
      <g id="Group_98" data-name="Group 98" transform="translate(0 0)">
        <path id="Path_90" data-name="Path 90" d="M0,0H4.98V4.98H0Z" transform="translate(3.521 0) rotate(45)" fill="#f7cc6d"/>
      </g>
    </g>
    <g id="Group_101" data-name="Group 101" transform="translate(34.398 22.209)">
      <g id="Group_100" data-name="Group 100">
        <path id="Path_91" data-name="Path 91" d="M40.4,32.621v.031a2.014,2.014,0,0,1-2.014,2.014h0a.548.548,0,0,0-.387.935l2.176,2.176,3.521-3.521-2.122-2.122a.687.687,0,0,0-1.173.486Z" transform="translate(-37.833 -31.932)" fill="#f4bc5f"/>
      </g>
    </g>
    <g id="Group_103" data-name="Group 103" transform="translate(37.649 21.004)">
      <g id="Group_102" data-name="Group 102" transform="translate(0 0)">
        <path id="Path_92" data-name="Path 92" d="M0,0H4.98V4.98H0Z" transform="translate(3.521 0) rotate(45)" fill="#fc4a32"/>
      </g>
    </g>
    <g id="Group_105" data-name="Group 105" transform="translate(39.36 22.645)">
      <g id="Group_104" data-name="Group 104">
        <path id="Path_93" data-name="Path 93" d="M45.814,32.661h0a2.359,2.359,0,0,1-2.359,2.359h0a.669.669,0,0,0-.473,1.142L44.6,37.777l3.521-3.521-1.8-1.8a.294.294,0,0,0-.5.208Z" transform="translate(-42.784 -32.367)" fill="#e23e2d"/>
      </g>
    </g>
  </g>
</svg>
