<svg xmlns="http://www.w3.org/2000/svg" width="14.992" height="14.927" viewBox="0 0 14.992 14.927">
  <g id="edit_14_" data-name="edit (14)" transform="translate(0 0)">
    <path id="Union_8" data-name="Union 8" d="M-969.133-174.073A1.869,1.869,0,0,1-971-175.942v-9.737a1.869,1.869,0,0,1,1.867-1.868h3.315a.373.373,0,0,1,.373.373.374.374,0,0,1-.373.374h-3.315a1.122,1.122,0,0,0-1.121,1.12v9.737a1.122,1.122,0,0,0,1.121,1.121h10.476a1.122,1.122,0,0,0,1.121-1.121v-3.317a.373.373,0,0,1,.373-.374.374.374,0,0,1,.374.374v3.317a1.869,1.869,0,0,1-1.867,1.869Zm2.282-4.076a.371.371,0,0,1-.1-.364l.876-3.165a.376.376,0,0,1,.1-.164l6.661-6.666a1.678,1.678,0,0,1,2.375,0l.438.439a1.684,1.684,0,0,1,0,2.378l-6.66,6.666a.368.368,0,0,1-.165.1l-3.162.877a.376.376,0,0,1-.1.013A.374.374,0,0,1-966.851-178.149Zm.8-.8,1.943-.538-1.4-1.406Zm.89-2.649,1.758,1.758,5.451-5.455-1.758-1.759Zm6.376-6.381-.4.4,1.758,1.759.4-.4a.936.936,0,0,0,0-1.321l-.438-.439a.93.93,0,0,0-.66-.274A.93.93,0,0,0-958.786-187.979Z" transform="translate(971 189)" fill="#a39ed2"/>
  </g>
</svg>
