<svg xmlns="http://www.w3.org/2000/svg" width="26.082" height="22.574" viewBox="0 0 26.082 22.574">
  <path id="graduate" d="M19.5,69.211V66.535a.272.272,0,0,1,.272-.272H22.7a.272.272,0,0,1,.272.272v2.691a.272.272,0,0,1-.42.228l-1.358-.889-1.26.869a.272.272,0,0,1-.427-.223Zm-2.8-.552V63.3a1.136,1.136,0,0,1,.435-2.186h3.26a1.858,1.858,0,0,0,.938.793,17.346,17.346,0,0,0,12.494,0,1.858,1.858,0,0,0,.938-.793h4.363a2.958,2.958,0,0,1,2.952,2.954v3.823a2.958,2.958,0,0,1-2.954,2.954H17.132A1.136,1.136,0,0,1,16.7,68.66Zm.869-.086h1.066v.637a1.143,1.143,0,0,0,1.789.939l.779-.538.869.569a1.141,1.141,0,0,0,1.765-.955v-.652H39.124a.685.685,0,0,0,.682-.682V64.069a.685.685,0,0,0-.682-.682H17.567v1.645h16.6a.656.656,0,0,1,.655.655v.586a.656.656,0,0,1-.655.655H23.838V65.666a.272.272,0,0,0-.272-.272H18.9a.272.272,0,0,0-.272.272v1.263H17.567ZM25.6,58.015l-4.594-2.2v4.351a.982.982,0,0,0,.638.931,16.476,16.476,0,0,0,11.866,0,.982.982,0,0,0,.636-.931V55.856l-4.873,2.333A4.731,4.731,0,0,1,25.6,58.015Zm11.534-.838c0,.644.522,1.916,1.167,1.916s1.166-1.271,1.166-1.916a1.167,1.167,0,0,0-.787-1.1V54.182A1.488,1.488,0,0,0,37.271,52.7a1.7,1.7,0,0,0-.7-.543l-7.314-3.5a3.9,3.9,0,0,0-2.924-.174L18.3,52.332c-.7.337-.541.967.364,1.4l7.311,3.5a3.9,3.9,0,0,0,2.923.174l8.02-3.84h.272a.619.619,0,0,1,.617.617v1.937A1.167,1.167,0,0,0,37.133,57.177Z" transform="translate(-15.996 -48.272)" fill="#fbfbfb"/>
</svg>
