<svg xmlns="http://www.w3.org/2000/svg" xmlns:xlink="http://www.w3.org/1999/xlink" width="69.838" height="34.919" viewBox="0 0 69.838 34.919">
  <defs>
    <clipPath id="clip-path">
      <path id="path26" d="M0-76.2H69.838v34.919H0Z" transform="translate(0 76.2)"/>
    </clipPath>
  </defs>
  <g id="layer1" transform="translate(0 0)">
    <g id="g22" transform="translate(0 0)">
      <g id="g24" clip-path="url(#clip-path)">
        <g id="g30" transform="translate(5.012 25.047)">
          <path id="path32" d="M-.569,0h.448L-.537,1.738A.745.745,0,0,0-.5,2.32a.526.526,0,0,0,.475.194A.824.824,0,0,0,.538,2.32a1.086,1.086,0,0,0,.314-.582L1.268,0h.454L1.3,1.781A1.538,1.538,0,0,1,.8,2.65a1.428,1.428,0,0,1-.93.288A.932.932,0,0,1-.92,2.651,1.032,1.032,0,0,1-1,1.781Z" transform="translate(1.05)" fill="#696a6a"/>
        </g>
        <g id="g34" transform="translate(7.723 24.934)">
          <path id="path36" d="M0-3.518.712-6.493l1.353,1.75c.036.049.073.1.109.158s.073.119.111.19L2.76-6.38H3.18L2.468-3.406,1.086-5.187a1.594,1.594,0,0,1-.1-.152,1.641,1.641,0,0,1-.089-.168L.417-3.518Z" transform="translate(0 6.493)" fill="#696a6a"/>
        </g>
        <g id="g38" transform="translate(10.866 25.047)">
          <path id="path40" d="M0-3.384.685-6.246h.453L.453-3.384Z" transform="translate(0 6.246)" fill="#696a6a"/>
        </g>
        <g id="g42" transform="translate(11.971 25.047)">
          <path id="path44" d="M0-3.384.685-6.246H2.242l-.095.395h-1.1l-.171.714h1.1l-.1.409H.775L.453-3.384Z" transform="translate(0 6.246)" fill="#696a6a"/>
        </g>
        <g id="g46" transform="translate(14.027 25.047)">
          <path id="path48" d="M0-3.384.685-6.246h.453L.453-3.384Z" transform="translate(0 6.246)" fill="#696a6a"/>
        </g>
        <g id="g50" transform="translate(15.133 25.047)">
          <path id="path52" d="M0-3.384.685-6.246H2.242l-.095.395h-1.1l-.172.717h1.1l-.1.409H.775L.553-3.8h1.1l-.1.416Z" transform="translate(0 6.246)" fill="#696a6a"/>
        </g>
        <g id="g54" transform="translate(17.21 25.047)">
          <path id="path56" d="M-.655-2.887h.381A2.06,2.06,0,0,0,.208-2.93a.907.907,0,0,0,.308-.145,1.211,1.211,0,0,0,.32-.345A1.612,1.612,0,0,0,1.03-3.9a1.3,1.3,0,0,0,.036-.479.639.639,0,0,0-.155-.345.52.52,0,0,0-.248-.145,2.107,2.107,0,0,0-.505-.043H-.17Zm-.554.42.685-2.862H.088a3.68,3.68,0,0,1,.825.061.844.844,0,0,1,.376.206.872.872,0,0,1,.25.487A1.661,1.661,0,0,1,1.5-3.9a2.085,2.085,0,0,1-.287.675,1.715,1.715,0,0,1-.483.486,1.484,1.484,0,0,1-.466.206,3.326,3.326,0,0,1-.742.062h-.733Z" transform="translate(1.209 5.328)" fill="#696a6a"/>
        </g>
        <g id="g58" transform="translate(21.276 25.047)">
          <path id="path60" d="M-1.007-1.414h.116A1.142,1.142,0,0,0-.368-1.5a.438.438,0,0,0,.2-.3q.055-.229-.057-.323A.8.8,0,0,0-.7-2.212H-.816Zm-.12.381L-1.435.251H-1.86l.685-2.862h.686a2.006,2.006,0,0,1,.441.034.522.522,0,0,1,.224.113A.485.485,0,0,1,.317-2.2.867.867,0,0,1,.3-1.823a1.153,1.153,0,0,1-.164.376.915.915,0,0,1-.27.27.867.867,0,0,1-.277.111,2.3,2.3,0,0,1-.457.033h-.261Z" transform="translate(1.86 2.611)" fill="#696a6a"/>
        </g>
        <g id="g62" transform="translate(22.761 24.933)">
          <path id="path64" d="M-1.462-2.189h.777l-.13-.653c-.006-.042-.012-.089-.017-.144S-.84-3.1-.842-3.166q-.045.094-.091.175t-.088.149Zm.985,1.124L-.618-1.8H-1.723l-.5.737H-2.7L-.636-4.04,0-1.065Z" transform="translate(2.699 4.04)" fill="#696a6a"/>
        </g>
        <g id="g66" transform="translate(25.857 25.047)">
          <path id="path68" d="M-.3-3.384l.313-1.31L-.555-6.246h.476l.352.972c.008.025.018.057.029.1s.022.084.033.131c.028-.046.058-.089.087-.129s.059-.077.089-.111l.83-.96h.454L.462-4.693.149-3.384Z" transform="translate(0.555 6.246)" fill="#696a6a"/>
        </g>
        <g id="g70" transform="translate(27.556 24.925)">
          <path id="path72" d="M-3.407-1.856q0-.033.019-.184.015-.125.023-.207a1.813,1.813,0,0,1-.1.2,2.3,2.3,0,0,1-.127.2L-4.682-.327-5.04-1.883a1.819,1.819,0,0,1-.035-.186q-.012-.09-.016-.178c-.016.06-.035.123-.059.189s-.053.135-.087.206l-.637,1.41H-6.29l1.373-2.983.391,1.807c.006.029.014.076.024.143s.022.149.036.246q.069-.123.2-.313l.053-.078,1.236-1.8-.04,2.983h-.421Z" transform="translate(6.29 3.426)" fill="#696a6a"/>
        </g>
        <g id="g74" transform="translate(31.191 25.047)">
          <path id="path76" d="M0-3.384.685-6.246H2.242l-.095.395h-1.1l-.172.717h1.1l-.1.409H.775L.553-3.8h1.1l-.1.416Z" transform="translate(0 6.246)" fill="#696a6a"/>
        </g>
        <g id="g78" transform="translate(33.269 24.934)">
          <path id="path80" d="M0-3.518.712-6.493l1.353,1.75c.036.049.073.1.109.158s.073.119.111.19L2.76-6.38H3.18L2.468-3.406,1.086-5.187a1.594,1.594,0,0,1-.1-.152,1.641,1.641,0,0,1-.089-.168L.417-3.518Z" transform="translate(0 6.493)" fill="#696a6a"/>
        </g>
        <g id="g82" transform="translate(36.701 25.047)">
          <path id="path84" d="M-1.413-.467-2,2h-.453l.59-2.467h-.741l.095-.395H-.581l-.094.395Z" transform="translate(2.607 0.861)" fill="#696a6a"/>
        </g>
        <g id="g86" transform="translate(38.366 24.982)">
          <path id="path88" d="M0-2.783l.4-.172a.388.388,0,0,0,.119.292.475.475,0,0,0,.327.1A.547.547,0,0,0,1.2-2.677a.539.539,0,0,0,.193-.309q.06-.252-.3-.45l-.077-.043A1.4,1.4,0,0,1,.5-3.9a.6.6,0,0,1-.044-.456.981.981,0,0,1,.367-.567,1.053,1.053,0,0,1,.659-.217.85.85,0,0,1,.487.122.466.466,0,0,1,.2.351l-.4.188a.429.429,0,0,0-.137-.2.353.353,0,0,0-.215-.063.513.513,0,0,0-.314.1.449.449,0,0,0-.17.262q-.062.258.358.481l.05.027a1.194,1.194,0,0,1,.477.382.614.614,0,0,1,.043.466,1.122,1.122,0,0,1-.4.646,1.155,1.155,0,0,1-.732.239A.788.788,0,0,1,.183-2.3.6.6,0,0,1,0-2.783" transform="translate(0 5.136)" fill="#696a6a"/>
        </g>
        <g id="g90" transform="translate(41.716 25.047)">
          <path id="path92" d="M0-3.384.685-6.246h.453L.453-3.384Z" transform="translate(0 6.246)" fill="#696a6a"/>
        </g>
        <g id="g94" transform="translate(42.822 24.934)">
          <path id="path96" d="M0-3.518.712-6.493l1.353,1.75c.036.049.073.1.109.158s.073.119.111.19L2.76-6.38H3.18L2.468-3.406,1.086-5.187a1.6,1.6,0,0,1-.1-.152,1.674,1.674,0,0,1-.089-.168L.417-3.518Z" transform="translate(0 6.493)" fill="#696a6a"/>
        </g>
        <g id="g98" transform="translate(46.253 25.047)">
          <path id="path100" d="M-1.413-.467-2,2h-.453l.59-2.467h-.741l.095-.395H-.581l-.094.395Z" transform="translate(2.607 0.861)" fill="#696a6a"/>
        </g>
        <g id="g102" transform="translate(47.942 25.047)">
          <path id="path104" d="M0-3.384.685-6.246H2.242l-.094.395h-1.1l-.172.717h1.1l-.1.409H.775L.553-3.8h1.1l-.1.416Z" transform="translate(0 6.246)" fill="#696a6a"/>
        </g>
        <g id="g106" transform="translate(50.019 25.047)">
          <path id="path108" d="M-1-1.442h.082a1.021,1.021,0,0,0,.5-.086.464.464,0,0,0,.191-.305q.057-.236-.047-.333a.7.7,0,0,0-.446-.1H-.8Zm-.115.362L-1.423.2h-.425l.685-2.862H-.53a1.8,1.8,0,0,1,.423.037A.5.5,0,0,1,.126-2.5a.5.5,0,0,1,.136.268.86.86,0,0,1-.016.359,1.049,1.049,0,0,1-.291.539A.92.92,0,0,1-.579-1.1L.07.2H-.443L-1.065-1.08Z" transform="translate(1.848 2.662)" fill="#696a6a"/>
        </g>
        <g id="g110" transform="translate(52.205 25.047)">
          <path id="path112" d="M0-3.384.685-6.246H2.242l-.094.395h-1.1l-.171.714h1.1l-.1.409H.775L.453-3.384Z" transform="translate(0 6.246)" fill="#696a6a"/>
        </g>
        <g id="g114" transform="translate(53.735 24.933)">
          <path id="path116" d="M-1.462-2.189h.778l-.13-.653Q-.824-2.9-.832-2.985c0-.054-.008-.114-.01-.181q-.045.094-.091.175t-.088.149Zm.985,1.124L-.618-1.8H-1.723l-.5.737H-2.7L-.636-4.04,0-1.065Z" transform="translate(2.699 4.04)" fill="#696a6a"/>
        </g>
        <g id="g118" transform="translate(56.801 24.978)">
          <path id="path120" d="M-3.058-.9A1,1,0,0,0-3.4-1.156a1.076,1.076,0,0,0-.431-.084,1.235,1.235,0,0,0-.816.3,1.42,1.42,0,0,0-.474.78.92.92,0,0,0,.1.764.715.715,0,0,0,.632.3A1.423,1.423,0,0,0-3.9.817,2.023,2.023,0,0,0-3.408.545l-.126.526a1.742,1.742,0,0,1-.446.2,1.74,1.74,0,0,1-.483.066,1.4,1.4,0,0,1-.566-.108.977.977,0,0,1-.4-.317,1.052,1.052,0,0,1-.2-.484A1.533,1.533,0,0,1-5.6-.163a1.939,1.939,0,0,1,.251-.591,2.009,2.009,0,0,1,.433-.486,1.927,1.927,0,0,1,.553-.32,1.75,1.75,0,0,1,.607-.108,1.331,1.331,0,0,1,.451.074,1.2,1.2,0,0,1,.38.222Z" transform="translate(5.644 1.668)" fill="#696a6a"/>
        </g>
        <g id="g122" transform="translate(59.432 25.047)">
          <path id="path124" d="M0-3.384.685-6.246H2.242l-.095.395h-1.1l-.172.717h1.1l-.1.409H.775L.553-3.8h1.1l-.1.416Z" transform="translate(0 6.246)" fill="#696a6a"/>
        </g>
        <g id="g126" transform="translate(48.043 6.895)">
          <path id="path128" d="M-3.685-18.511H-6.8l4.335-15.658H.65Z" transform="translate(6.803 34.169)" fill="#66686c"/>
        </g>
        <g id="g130" transform="translate(27.055 6.942)">
          <path id="path132" d="M-26.584-.53a1.155,1.155,0,0,0-1-.448H-44.728l-.849,3.067h3.119v0h12.475l-.908,3.277H-43.366V5.357h-3.118L-49.07,14.7h3.119l1.737-6.27h14.024a1.993,1.993,0,0,0,1.238-.448,2.08,2.08,0,0,0,.764-1.108L-26.453.6A1.273,1.273,0,0,0-26.584-.53" transform="translate(49.07 0.978)" fill="#66686c"/>
        </g>
        <g id="g134" transform="translate(6.592 6.941)">
          <path id="path136" d="M-22.044-17.3a1.432,1.432,0,0,1-1.38,1.049H-39.508a1.124,1.124,0,0,1-.978-.448,1.245,1.245,0,0,1-.138-1.109L-36.7-31.936h3.12l-3.505,12.618H-24.6L-21.1-31.936h3.12Z" transform="translate(40.691 31.936)" fill="#66686c"/>
        </g>
        <g id="g138" transform="translate(56.53 6.924)">
          <path id="path140" d="M-5.143,0-1.2,7.849l-8.3,7.847Z" transform="translate(9.493)" fill="#27803b"/>
        </g>
        <g id="g142" transform="translate(53.757 6.924)">
          <path id="path144" d="M-5.15,0l3.944,7.849-8.3,7.847Z" transform="translate(9.506)" fill="#e9661c"/>
        </g>
      </g>
    </g>
  </g>
</svg>
