<svg xmlns="http://www.w3.org/2000/svg" width="23.314" height="23.314" viewBox="0 0 23.314 23.314">
  <path id="Path_104" data-name="Path 104" d="M18.488,23.314H.683A.683.683,0,0,1,0,22.631V.683a.683.683,0,0,1,1.366,0V8.891H6.993l4.113-5.639a.683.683,0,0,1,1.1,0l4.113,5.639h4.661l-.72-.72a.683.683,0,1,1,.966-.966l1.883,1.883.033.035v0h0a.683.683,0,0,1,.166.507h0v0h0a.68.68,0,0,1-.2.421l-.009.009-1.928,1.882a.683.683,0,0,1-.954-.977l.731-.714h-4.98a.683.683,0,0,1-.552-.281L11.657,4.813,7.892,9.976a.683.683,0,0,1-.552.281H1.366V21.948H4.144V14.127a.683.683,0,0,1,.683-.683H7.559a.683.683,0,0,1,.683.683v7.821H9.608V10.029a.683.683,0,0,1,.683-.683h2.732a.683.683,0,0,1,.683.683V21.948h1.366V14.127a.683.683,0,0,1,.683-.683h2.732a.683.683,0,0,1,.683.683v7.821h3.461a.683.683,0,1,1,0,1.366ZM17.8,21.948V14.81H16.438v7.138Zm-5.464,0V10.712H10.974V21.948Zm-5.464,0V14.81H5.51v7.138Z" fill="#fff"/>
</svg>
