<svg xmlns="http://www.w3.org/2000/svg" width="9" height="9" viewBox="0 0 9 9">
  <g id="cancelled_amount" data-name="cancelled amount" transform="translate(-5451 -23915)">
    <path id="Path_31158" data-name="Path 31158" d="M2.832-7.51v.075h.618V-7H2.8a1.247,1.247,0,0,1-.221.567.9.9,0,0,1-.461.3,2.649,2.649,0,0,1-.772.093V-5.7a.767.767,0,0,0,.125.463.491.491,0,0,0,.423.17q.543,0,.543-.612H3a1.093,1.093,0,0,1-.29.812,1.14,1.14,0,0,1-.823.274,1.085,1.085,0,0,1-.823-.3,1.162,1.162,0,0,1-.285-.836v-.73a7.758,7.758,0,0,0,.868-.035.8.8,0,0,0,.413-.146A.575.575,0,0,0,2.235-7H.552v-.437h1.71V-7.91H.552v-.442h2.9v.442H2.832Z" transform="translate(5453.448 23926.563)" fill="#fff"/>
    <path id="Path_31156" data-name="Path 31156" d="M5455.595,23890l5.7,5.7" transform="translate(-2.943 26.652)" fill="none" stroke="#fff" stroke-linecap="square" stroke-width="0.5"/>
    <g id="Path_31159" data-name="Path 31159" transform="translate(5451 23915)" fill="none">
      <path d="M4.5,0A4.5,4.5,0,1,1,0,4.5,4.5,4.5,0,0,1,4.5,0Z" stroke="none"/>
      <path d="M 4.5 0.8000001907348633 C 2.45980978012085 0.8000001907348633 0.8000001907348633 2.45980978012085 0.8000001907348633 4.5 C 0.8000001907348633 6.540189743041992 2.45980978012085 8.199999809265137 4.5 8.199999809265137 C 6.540189743041992 8.199999809265137 8.199999809265137 6.540189743041992 8.199999809265137 4.5 C 8.199999809265137 2.45980978012085 6.540189743041992 0.8000001907348633 4.5 0.8000001907348633 M 4.5 0 C 6.98528003692627 0 9 2.01471996307373 9 4.5 C 9 6.98528003692627 6.98528003692627 9 4.5 9 C 2.01471996307373 9 0 6.98528003692627 0 4.5 C 0 2.01471996307373 2.01471996307373 0 4.5 0 Z" stroke="none" fill="#fff"/>
    </g>
  </g>
</svg>
