<svg xmlns="http://www.w3.org/2000/svg" width="22.387" height="22.149" viewBox="0 0 22.387 22.149">
  <path id="Cancellation" d="M1.445,22.149A1.448,1.448,0,0,1,0,20.7V1.263A1.263,1.263,0,0,1,1.261,0H3.54l.008,0H17.764a.376.376,0,0,1,.376.375V9.759a4.457,4.457,0,0,1,0,8.9v.969a.375.375,0,0,1-.376.375H16.671v1.765a.376.376,0,0,1-.374.376ZM.752,20.7a.7.7,0,0,0,.693.694H15.92v-1.39H1.445A.7.7,0,0,0,.752,20.7Zm0-19.442V19.444a1.423,1.423,0,0,1,.693-.185H3.173V.753H1.261A.509.509,0,0,0,.752,1.262Zm3.171,18H17.39v-.618a4.46,4.46,0,0,1,0-8.857V.752H3.922ZM14.211,14.21A3.712,3.712,0,1,0,17.922,10.5,3.716,3.716,0,0,0,14.211,14.21Zm4.942,1.756-1.317-1.318-1.318,1.318a.4.4,0,0,1-.564-.567l1.316-1.317-1.316-1.318a.4.4,0,0,1,.566-.566l1.317,1.318L19.155,12.2a.4.4,0,0,1,.565.566L18.4,14.082,19.72,15.4a.4.4,0,0,1-.283.683A.408.408,0,0,1,19.153,15.966ZM6.307,7.508a.35.35,0,0,1,0-.7h8a.35.35,0,0,1,0,.7Zm3-2a.35.35,0,1,1,0-.7h5a.35.35,0,1,1,0,.7Zm-3-2a.35.35,0,0,1,0-.7h8a.35.35,0,0,1,0,.7Z" transform="translate(0.001)" fill="#fff"/>
</svg>
