<svg xmlns="http://www.w3.org/2000/svg" width="16.587" height="16.587" viewBox="0 0 16.587 16.587">
  <g id="_03_dashboard_layout_grid" data-name="03 dashboard, layout, grid" transform="translate(-1 -1)">
    <path id="Path_30" data-name="Path 30" d="M8.54,3.262V6.278A2.262,2.262,0,0,1,6.278,8.54H3.262A2.262,2.262,0,0,1,1,6.278V3.262A2.262,2.262,0,0,1,3.262,1H6.278A2.262,2.262,0,0,1,8.54,3.262ZM15.325,1H12.309a2.262,2.262,0,0,0-2.262,2.262V6.278A2.262,2.262,0,0,0,12.309,8.54h3.016a2.262,2.262,0,0,0,2.262-2.262V3.262A2.262,2.262,0,0,0,15.325,1ZM6.278,10.047H3.262A2.262,2.262,0,0,0,1,12.309v3.016a2.262,2.262,0,0,0,2.262,2.262H6.278A2.262,2.262,0,0,0,8.54,15.325V12.309A2.262,2.262,0,0,0,6.278,10.047Zm9.047,0H12.309a2.262,2.262,0,0,0-2.262,2.262v3.016a2.262,2.262,0,0,0,2.262,2.262h3.016a2.262,2.262,0,0,0,2.262-2.262V12.309A2.262,2.262,0,0,0,15.325,10.047Z" transform="translate(0 0)" fill="#7367f0"/>
  </g>
</svg>
