<svg xmlns="http://www.w3.org/2000/svg" width="44" height="43.091" viewBox="0 0 44 43.091">
  <g id="_56_Converted_" data-name="56 [Converted]" transform="translate(-734.5 -544.7)">
    <path id="Path_29504" data-name="Path 29504" d="M821.881,802.807v18.181a2.539,2.539,0,0,1-2.532,2.532H788.633c-2.357,0-2.532-2.063-2.532-3.552V802.807a5.609,5.609,0,0,0,4.691-2.007,5.815,5.815,0,0,0,8.8,0,5.815,5.815,0,0,0,8.8,0,5.815,5.815,0,0,0,8.8,0,5.6,5.6,0,0,0,4.691,2.007" transform="translate(-47.459 -235.73)" fill="#5448d2" fill-rule="evenodd"/>
    <path id="Path_29505" data-name="Path 29505" d="M734.5,671.7h8.8v5.758c0,5.822-8.8,5.822-8.8,0Z" transform="translate(0 -116.886)" fill="#5448d2" fill-rule="evenodd"/>
    <path id="Path_29506" data-name="Path 29506" d="M853.8,671.7H845v5.758c0,5.822,8.8,5.822,8.8,0Z" transform="translate(-101.7 -116.886)" fill="#cbc7ff" fill-rule="evenodd"/>
    <path id="Path_29507" data-name="Path 29507" d="M955.5,671.7h8.8v5.758c0,5.822-8.8,5.822-8.8,0Z" transform="translate(-203.4 -116.886)" fill="#ff7630" fill-rule="evenodd"/>
    <path id="Path_29508" data-name="Path 29508" d="M734.5,554.814h8.8l8.362-10.114h-3.815Z" fill="#8377ff" fill-rule="evenodd"/>
    <path id="Path_29509" data-name="Path 29509" d="M853.8,554.814H845l8.362-10.114h3.48Z" transform="translate(-101.7)" fill="#fff" fill-rule="evenodd"/>
    <path id="Path_29510" data-name="Path 29510" d="M959.9,554.814h4.4L961.258,544.7h-2.716L955.5,554.814Z" transform="translate(-203.4)" fill="#ffad82" fill-rule="evenodd"/>
    <path id="Path_29511" data-name="Path 29511" d="M1185.3,671.7h-8.8v5.758c0,5.822,8.8,5.822,8.8,0Z" transform="translate(-406.8 -116.886)" fill="#5448d2" fill-rule="evenodd"/>
    <path id="Path_29512" data-name="Path 29512" d="M1066,671.7h8.8v5.758c0,5.822-8.8,5.822-8.8,0Z" transform="translate(-305.1 -116.886)" fill="#cbc7ff" fill-rule="evenodd"/>
    <path id="Path_29513" data-name="Path 29513" d="M1088.662,554.814h-8.8L1071.5,544.7h3.807Z" transform="translate(-310.162)" fill="#8377ff" fill-rule="evenodd"/>
    <path id="Path_29514" data-name="Path 29514" d="M1030.842,554.814h8.8L1031.28,544.7h-3.48Z" transform="translate(-269.942)" fill="#fff" fill-rule="evenodd"/>
    <path id="Path_29515" data-name="Path 29515" d="M780.632,819.086a7.991,7.991,0,0,0-1.4.147.479.479,0,0,0-.38.47v1.609h-1.376a.475.475,0,0,0-.338.147.5.5,0,0,0-.135.346v11.1a.481.481,0,0,0,.481.485.467.467,0,0,0,.158-.026,15.067,15.067,0,0,1,4-.658,9.21,9.21,0,0,1,3.872.793.516.516,0,0,0,.549,0,9.227,9.227,0,0,1,3.876-.793,15.092,15.092,0,0,1,4,.658.531.531,0,0,0,.154.026.488.488,0,0,0,.485-.485V821.8a.488.488,0,0,0-.485-.485h-1.316v-1.6a.485.485,0,0,0-.41-.477,8.471,8.471,0,0,0-4.162.4,5.672,5.672,0,0,0-2.4,1.677,5.365,5.365,0,0,0-2.41-1.752,7.738,7.738,0,0,0-2.767-.478Zm.282.978a6.678,6.678,0,0,1,2.151.4,4.237,4.237,0,0,1,2.245,1.842v8.989a8.316,8.316,0,0,0-2.3-1.173,9.372,9.372,0,0,0-3.241-.425l.053-9.561a7.07,7.07,0,0,1,1.094-.071Zm9.79.045a7.869,7.869,0,0,1,1.113.034v1.737H791.8v7.756a7.225,7.225,0,0,0-3.03.429,11.621,11.621,0,0,0-2.515,1.316v-9.061a4.5,4.5,0,0,1,2.275-1.782,7.533,7.533,0,0,1,2.173-.429Zm-12.749,2.2h.887l-.041,7.846v.015a.3.3,0,0,0,0,.083.47.47,0,0,0,.165.331.483.483,0,0,0,.353.113,8.54,8.54,0,0,1,3.387.361,7.238,7.238,0,0,1,2.342,1.271,10.451,10.451,0,0,0-3.418-.538,15.022,15.022,0,0,0-3.677.523Zm0,0" transform="translate(-29.28 -248.998)" fill="#fff"/>
  </g>
</svg>
