<svg xmlns="http://www.w3.org/2000/svg" xmlns:xlink="http://www.w3.org/1999/xlink" width="16.87" height="16.87" viewBox="0 0 16.87 16.87">
  <defs>
    <clipPath id="clip-path">
      <path id="path2043" d="M0-682.665H16.87v16.87H0Z" transform="translate(0 0)" fill="#fbfbfb"/>
    </clipPath>
  </defs>
  <g id="normal" transform="translate(0 682.665)" clip-path="url(#clip-path)">
    <path id="path2049" d="M-335.551-180a4.453,4.453,0,0,1,4.448,4.448,4.453,4.453,0,0,1-4.448,4.448A4.453,4.453,0,0,1-340-175.551,4.453,4.453,0,0,1-335.551-180Zm0,7.908a3.464,3.464,0,0,0,3.46-3.46,3.464,3.464,0,0,0-3.46-3.46,3.464,3.464,0,0,0-3.46,3.46A3.464,3.464,0,0,0-335.551-172.092Z" transform="translate(340.032 -494.692)" fill="#fbfbfb"/>
    <path id="path2053" d="M-8.632-645.795H-19.506a.494.494,0,0,1-.494-.494.494.494,0,0,1,.494-.494H-8.632a.5.5,0,0,0,.494-.494v-11.393l-3.005-3.006h-7.374a.5.5,0,0,0-.494.494v6.985a.494.494,0,0,1-.494.494A.494.494,0,0,1-20-654.2v-6.985a1.484,1.484,0,0,1,1.483-1.483h7.579a.494.494,0,0,1,.349.145l3.295,3.3a.494.494,0,0,1,.145.349v11.6A1.484,1.484,0,0,1-8.632-645.795Z" transform="translate(23.987 -20)" fill="#fbfbfb"/>
    <path id="path2057" d="M-19.506-20a.494.494,0,0,1,.35.145l3.295,3.295a.494.494,0,0,1,.107.539.494.494,0,0,1-.457.305h-3.295A.494.494,0,0,1-20-16.211v-3.295a.494.494,0,0,1,.305-.457A.494.494,0,0,1-19.506-20Zm2.1,3.295-1.608-1.608v1.608Z" transform="translate(32.554 -662.664)" fill="#fbfbfb"/>
    <path id="path2061" d="M-12.565-19.011h-6.94A.494.494,0,0,1-20-19.506.494.494,0,0,1-19.506-20h6.94a.494.494,0,0,1,.494.494A.494.494,0,0,1-12.565-19.011Z" transform="translate(26.602 -653.703)" fill="#fbfbfb"/>
    <path id="path2065" d="M-12.257-19.011h-7.249A.494.494,0,0,1-20-19.506.494.494,0,0,1-19.506-20h7.249a.494.494,0,0,1,.494.494A.494.494,0,0,1-12.257-19.011Z" transform="translate(26.293 -656.668)" fill="#fbfbfb"/>
    <path id="path2069" d="M-13.9-19.011h-5.6A.494.494,0,0,1-20-19.506.494.494,0,0,1-19.506-20h5.6a.494.494,0,0,1,.494.494A.494.494,0,0,1-13.9-19.011Z" transform="translate(27.941 -650.737)" fill="#fbfbfb"/>
    <path id="path2073" d="M-19.506-97.034A.494.494,0,0,1-20-97.528v-1.977a.494.494,0,0,1,.494-.494.494.494,0,0,1,.494.494v1.977A.494.494,0,0,1-19.506-97.034Z" transform="translate(23.987 -572.715)" fill="#fbfbfb"/>
    <path id="path2077" d="M-18.188-19.011h-1.318A.494.494,0,0,1-20-19.506.494.494,0,0,1-19.506-20h1.318a.494.494,0,0,1,.494.494A.494.494,0,0,1-18.188-19.011Z" transform="translate(23.987 -650.737)" fill="#fbfbfb"/>
  </g>
</svg>
