<svg xmlns="http://www.w3.org/2000/svg" width="19.594" height="19.587" viewBox="0 0 19.594 19.587">
  <path id="clerk" d="M18.78,11.484l-3.248-.617c0-.018.005-.035.005-.053V10.07a3.159,3.159,0,0,0,1.58-2.733.947.947,0,0,0,.157-1.88l.18-.418A2.553,2.553,0,0,0,16.17,1.7l-.882-.4a3.239,3.239,0,0,0-3.233.351l-.488.366-.014.009a1.98,1.98,0,0,0-1.192.891,1.959,1.959,0,0,0-.073,1.893l.323.646A.948.948,0,0,0,10.8,7.337a3.159,3.159,0,0,0,1.58,2.733v.744c0,.018,0,.035.005.053l-1.27.241V10.5a.949.949,0,0,0-.948-.948H1.948A.949.949,0,0,0,1,10.5v4.425a.949.949,0,0,0,.948.948h3.16v2.212H1.316A.316.316,0,0,0,1,18.4v1.9a.316.316,0,0,0,.316.316H20.278a.316.316,0,0,0,.316-.316V13.66a2.21,2.21,0,0,0-1.814-2.176ZM7,15.87h.316v2.212H7Zm.948,0H9.217v2.212H7.953Zm1.9,0h8.217v2.212H9.849Zm8.217-.632h-.632V11.871l.632.12Zm-.632-8.849a.316.316,0,0,1-.316.316V6.073A.316.316,0,0,1,17.434,6.389ZM10.9,3.245A1.344,1.344,0,0,1,12.049,2.6a1.476,1.476,0,0,1,1.23.659l.1.149.526-.351-.1-.149a2.1,2.1,0,0,0-1.192-.861,2.6,2.6,0,0,1,2.412-.165l.882.4a1.921,1.921,0,0,1,.967,2.509l-.021.05-.4-.8a.316.316,0,0,0-.472-.112l-.505.379a2.528,2.528,0,0,1-3.034,0l-.506-.379a.316.316,0,0,0-.472.112l-.429.857-.181-.362a1.331,1.331,0,0,1,.05-1.285Zm-.422,3.144a.316.316,0,0,1,.316-.316V6.7A.316.316,0,0,1,10.481,6.389Zm.948.948V5.515l.429-.859.2.152a3.161,3.161,0,0,0,3.793,0l.2-.152.429.859V7.337a2.528,2.528,0,1,1-5.057,0Zm2.528,3.16a3.156,3.156,0,0,0,.948-.146v.462a.948.948,0,1,1-1.9,0v-.462A3.156,3.156,0,0,0,13.958,10.5Zm-1.426.984a1.571,1.571,0,0,0,2.853,0l1.418.27v3.487H11.113V11.751ZM1.948,15.238a.316.316,0,0,1-.316-.316V10.5a.316.316,0,0,1,.316-.316h8.217a.316.316,0,0,1,.316.316v4.741H7V12.709a.316.316,0,0,0-.316-.316H5.425a.316.316,0,0,0-.316.316v2.528Zm3.792-2.212h.632v5.057H5.741Zm12.325,6.953H1.632V18.714H18.066Zm1.9,0H18.7V12.114a1.578,1.578,0,0,1,1.264,1.545Z" transform="translate(-1 -1.023)" fill="#fbfbfb"/>
</svg>
