<svg xmlns="http://www.w3.org/2000/svg" width="21.709" height="18.989" viewBox="0 0 21.709 18.989">
  <g id="pie-chart_1_" data-name="pie-chart (1)" transform="translate(0 -23.999)">
    <path id="Union_1" data-name="Union 1" d="M8.218,18.95A9.067,9.067,0,0,1,8.046.913a.949.949,0,0,1,.1-.006.916.916,0,0,1,.917.912v8.1l5.73,5.73A.91.91,0,0,1,14.729,17a9.028,9.028,0,0,1-5.663,1.985Q8.646,18.989,8.218,18.95ZM8.147,1.814A8.186,8.186,0,0,0,.958,10.855,8.252,8.252,0,0,0,8.3,18.047c.255.023.513.035.767.035a8.071,8.071,0,0,0,5.1-1.786l-6-6V1.819l-.01-.006ZM18.423,16.559l-4.182-4.182a.907.907,0,0,1,.641-1.548H20.8a.916.916,0,0,1,.907,1.018,9.024,9.024,0,0,1-1.924,4.638.913.913,0,0,1-1.356.073Zm.641-.641A8.059,8.059,0,0,0,20.8,11.747l-.006-.011H14.882Zm-7.277-6.9a.907.907,0,0,1-.907-.907V.913A.916.916,0,0,1,11.9.006,9.07,9.07,0,0,1,19.89,8a.916.916,0,0,1-.907,1.018Zm0-2.053V8.109h1.2l4.22-4.22a8.289,8.289,0,0,0-1.168-1.176Zm6.106,1.147h1.09a7.924,7.924,0,0,0-.164-.926Zm-3.627,0h2.345l1.914-1.914a8.13,8.13,0,0,0-.784-1.561Zm-2.48-4.773V5.68l3.508-3.508a8.134,8.134,0,0,0-1.552-.793Zm0-2.423V2.054l.972-.972A7.951,7.951,0,0,0,11.8.907.015.015,0,0,0,11.786.913Z" transform="translate(0 23.999)" fill="#fbfbfb"/>
  </g>
</svg>
