<svg xmlns="http://www.w3.org/2000/svg" width="43" height="43" viewBox="0 0 43 43">
  <g id="total_sale" transform="translate(-981 -304)">
    <path id="Rectangle_21" data-name="Rectangle 21" d="M0,0H32A11,11,0,0,1,43,11V43a0,0,0,0,1,0,0H11A11,11,0,0,1,0,32V0A0,0,0,0,1,0,0Z" transform="translate(981 304)" fill="#4d3fd9"/>
    <g id="Group_150" data-name="Group 150" transform="translate(889 -2763)">
      <path id="Path_105" data-name="Path 105" d="M16.454,23.574l-2.124-.892-.031-.014h-.007a.689.689,0,0,1-.3-.29v0h0a.692.692,0,0,1-.046-.106h0v0h0a.689.689,0,0,1,.009-.461l.685-1.865a.692.692,0,1,1,1.3.477l-.156.424A10.027,10.027,0,0,0,14.39,2.246.692.692,0,1,1,14.8.924,11.411,11.411,0,0,1,16.425,22.06l.565.237a.692.692,0,1,1-.536,1.276ZM8.007,22.7A11.411,11.411,0,0,1,6.383,1.568l-.565-.237A.692.692,0,0,1,6.354.054L8.477.945l.04.018h.006a.689.689,0,0,1,.3.288h0v0h0a.692.692,0,0,1,.044.1h0v0h0a.689.689,0,0,1-.008.457L8.175,3.694a.692.692,0,0,1-1.3-.477l.156-.424A10.027,10.027,0,0,0,8.419,21.382.692.692,0,1,1,8.007,22.7Zm-3.66-10.89A7.058,7.058,0,1,1,11.4,18.872,7.066,7.066,0,0,1,4.347,11.814Zm1.384,0A5.673,5.673,0,1,0,11.4,6.14,5.68,5.68,0,0,0,5.731,11.814Z" transform="translate(102 3077)" fill="#fff"/>
      <path id="Path_106" data-name="Path 106" d="M2.088,0,.6-2.6v-.424H.864a1.834,1.834,0,0,0,.9-.184.8.8,0,0,0,.388-.624H.6v-.536H2.144q-.16-.808-1.232-.808H.6v-.536H4v.536H2.56a1.241,1.241,0,0,1,.424.808H4v.536H3a1.331,1.331,0,0,1-.448.916,2,2,0,0,1-1.008.42L3.088,0Z" transform="translate(111 3092)" fill="#fff" stroke="rgba(0,0,0,0)" stroke-width="1"/>
    </g>
  </g>
</svg>
