<svg xmlns="http://www.w3.org/2000/svg" width="21.5" height="23.51" viewBox="0 0 21.5 23.51">
  <g id="Layer_34" transform="translate(-7.07 -6.29)">
    <path id="Path_97" data-name="Path 97" d="M13.123,20.539H8.263a.663.663,0,0,0-.663.645v7.953a.663.663,0,0,0,.663.663h4.86a.663.663,0,0,0,.663-.663V21.185A.663.663,0,0,0,13.123,20.539Zm-.663,7.953H8.926V21.865h3.535ZM20.515,17h-4.86a.663.663,0,0,0-.663.645V29.138a.663.663,0,0,0,.663.663h4.86a.663.663,0,0,0,.663-.663V17.65A.663.663,0,0,0,20.515,17Zm-.663,11.488H16.318V18.33h3.535ZM27.908,13.47h-4.86a.663.663,0,0,0-.663.663V29.138a.663.663,0,0,0,.663.663h4.86a.663.663,0,0,0,.663-.663V14.115A.663.663,0,0,0,27.908,13.47Zm-.663,15.023H23.71V14.8h3.535ZM9.765,15.882a.663.663,0,0,1-.048.936h0l-1.5,1.352a.663.663,0,0,1-.972-.9.65.65,0,0,1,.088-.079l1.471-1.356a.663.663,0,0,1,.937.024ZM25.955,6.29h-3.3a.663.663,0,0,0,0,1.326h1.436l-7.715,6.5-2.236-2.236a.663.663,0,0,0-.91-.022l-2.748,2.488a.663.663,0,0,0,.884.981l2.28-2.063,2.209,2.209a.663.663,0,0,0,.884.035l8.5-7.176v1.728a.663.663,0,1,0,1.326,0V6.9a.592.592,0,0,0-.6-.61Z" transform="translate(0 0)" fill="#fff"/>
  </g>
</svg>
