<svg id="transaction" xmlns="http://www.w3.org/2000/svg" width="21.906" height="23.47" viewBox="0 0 21.906 23.47">
  <path id="Path_98" data-name="Path 98" d="M21.515,10.953H17.994v-9A1.958,1.958,0,0,0,16.038,0H3.129A1.565,1.565,0,0,0,1.565,1.565V6.259H.391A.391.391,0,0,0,0,6.65V9a.391.391,0,0,0,.391.391H1.565v4.3a.391.391,0,0,0,.391.391H3.912v7.823A1.565,1.565,0,0,0,5.476,23.47H18.385a1.565,1.565,0,1,0,0-3.129h-.391V14.082h3.521a.391.391,0,0,0,.391-.391V11.344A.391.391,0,0,0,21.515,10.953ZM2.347,1.565a.782.782,0,1,1,1.565,0V6.259H2.347ZM.782,7.041H11.735a.391.391,0,0,0,.388-.341l1.348,1.123L12.123,8.947a.391.391,0,0,0-.388-.341H.782ZM2.347,13.3V9.388H3.912V13.3Zm16.82,8.606a.782.782,0,0,1-.782.782H6.831a1.552,1.552,0,0,0,.21-.782v-.782H18.385a.782.782,0,0,1,.782.782Zm-1.956-1.565H6.65a.391.391,0,0,0-.391.391v1.174a.782.782,0,1,1-1.565,0V9.388h6.65v.391a.391.391,0,0,0,.642.3l2.347-1.956a.391.391,0,0,0,0-.6L11.986,5.567a.391.391,0,0,0-.642.3v.391H4.694V1.565A1.548,1.548,0,0,0,4.477.782H16.038a1.174,1.174,0,0,1,1.174,1.174v9h-6.65v-.391a.391.391,0,0,0-.642-.3L7.573,12.217a.391.391,0,0,0,0,.6L9.92,14.774a.391.391,0,0,0,.642-.3v-.391h6.65ZM21.123,13.3H10.17a.383.383,0,0,0-.147.03,1.355,1.355,0,0,0-.12.078.412.412,0,0,0-.035.045.371.371,0,0,0-.049.072.342.342,0,0,0-.018.057.337.337,0,0,0-.019.059L8.434,12.518l1.348-1.123a.337.337,0,0,0,.019.059.325.325,0,0,0,.018.057.363.363,0,0,0,.049.072.412.412,0,0,0,.035.045,1.358,1.358,0,0,0,.12.078.379.379,0,0,0,.147.03H21.123Zm0,0" fill="#fff"/>
  <path id="Path_99" data-name="Path 99" d="M128,48h3.912v.782H128Zm0,0" transform="translate(-121.741 -45.653)" fill="#fff"/>
  <path id="Path_100" data-name="Path 100" d="M128,80h3.912v.782H128Zm0,0" transform="translate(-121.741 -76.088)" fill="#fff"/>
  <path id="Path_101" data-name="Path 101" d="M160,352h7.823v.782H160Zm0,0" transform="translate(-152.177 -334.788)" fill="#fff"/>
  <path id="Path_102" data-name="Path 102" d="M160,384h7.823v.782H160Zm0,0" transform="translate(-152.177 -365.224)" fill="#fff"/>
  <path id="Path_103" data-name="Path 103" d="M272,320h2.347v.782H272Zm0,0" transform="translate(-258.7 -304.353)" fill="#fff"/>
</svg>
