<svg xmlns="http://www.w3.org/2000/svg" width="20.427" height="19.091" viewBox="0 0 20.427 19.091">
  <g id="calendar_15_" data-name="calendar (15)" transform="translate(-1 -2)">
    <path id="Path_29499" data-name="Path 29499" d="M19.2,2H17.291V3.909a.636.636,0,0,1-1.273,0V2H5.836V3.909a.636.636,0,0,1-1.273,0V2H2.655A1.753,1.753,0,0,0,1,3.909V6.2H21.364V3.909A2.147,2.147,0,0,0,19.2,2ZM1,7.536V19.182a1.727,1.727,0,0,0,1.718,1.909H19.264a2.147,2.147,0,0,0,2.164-1.909V7.536ZM6.664,18.227H5.136a.5.5,0,0,1-.509-.509V16.127a.5.5,0,0,1,.509-.509H6.727a.5.5,0,0,1,.509.509v1.591a.557.557,0,0,1-.573.509Zm0-5.727H5.136a.5.5,0,0,1-.509-.509V10.4a.5.5,0,0,1,.509-.509H6.727a.5.5,0,0,1,.509.509v1.591a.557.557,0,0,1-.573.509Zm5.091,5.727H10.164a.5.5,0,0,1-.509-.509V16.127a.5.5,0,0,1,.509-.509h1.591a.5.5,0,0,1,.509.509v1.591A.468.468,0,0,1,11.755,18.227Zm0-5.727H10.164a.5.5,0,0,1-.509-.509V10.4a.5.5,0,0,1,.509-.509h1.591a.5.5,0,0,1,.509.509v1.591A.468.468,0,0,1,11.755,12.5Zm5.091,5.727H15.255a.5.5,0,0,1-.509-.509V16.127a.5.5,0,0,1,.509-.509h1.591a.5.5,0,0,1,.509.509v1.591A.468.468,0,0,1,16.845,18.227Zm0-5.727H15.255a.5.5,0,0,1-.509-.509V10.4a.5.5,0,0,1,.509-.509h1.591a.5.5,0,0,1,.509.509v1.591A.468.468,0,0,1,16.845,12.5Z" transform="translate(0 0)" fill="#616161"/>
  </g>
</svg>
